<svg viewBox="0 0 735 358" fill="none" xmlns="http://www.w3.org/2000/svg">
<circle cx="370" cy="180" r="110" fill="#FFF" fill-opacity="0.5"/>
<path fill="#FFF" d="M118.413 133.6V139.585L110.643 142.63V205H99.9333L59.5083 144.835V196.075L67.8033 199.225V205H44.0733V199.225L51.8433 196.075V142.63L44.0733 139.585V133.6H62.5533L102.873 193.66V142.63L94.5783 139.585V133.6H118.413ZM154.073 150.82C162.123 150.82 168.563 153.06 173.393 157.54C178.293 161.95 180.743 168.985 180.743 178.645C180.743 188.305 178.293 195.375 173.393 199.855C168.563 204.265 162.123 206.47 154.073 206.47C146.023 206.47 139.548 204.265 134.648 199.855C129.818 195.375 127.403 188.305 127.403 178.645C127.403 168.985 129.818 161.95 134.648 157.54C139.548 153.06 146.023 150.82 154.073 150.82ZM154.073 158.38C149.873 158.38 146.513 158.975 143.993 160.165C141.543 161.355 139.688 163.42 138.428 166.36C137.238 169.3 136.643 173.395 136.643 178.645C136.643 183.895 137.238 187.99 138.428 190.93C139.688 193.87 141.543 195.935 143.993 197.125C146.513 198.315 149.873 198.91 154.073 198.91C158.273 198.91 161.598 198.315 164.048 197.125C166.568 195.935 168.423 193.87 169.613 190.93C170.873 187.99 171.503 183.895 171.503 178.645C171.503 173.395 170.873 169.3 169.613 166.36C168.423 163.42 166.568 161.355 164.048 160.165C161.598 158.975 158.273 158.38 154.073 158.38ZM286.042 199.225V205H270.082V170.245C270.082 166.115 269.172 163.14 267.352 161.32C265.532 159.43 262.837 158.485 259.267 158.485C256.817 158.485 254.542 158.8 252.442 159.43C250.412 159.99 247.052 161.11 242.362 162.79V196.075L249.502 199.225V205H233.542V170.245C233.542 166.115 232.632 163.14 230.812 161.32C228.992 159.43 226.297 158.485 222.727 158.485C220.347 158.485 218.107 158.8 216.007 159.43C213.977 159.99 210.582 161.11 205.822 162.79V196.075L212.962 199.225V205H189.862V199.225L197.002 196.075V161.215L189.862 158.275V152.29H201.517L204.247 156.595C208.377 154.495 212.087 153.025 215.377 152.185C218.667 151.275 222.062 150.82 225.562 150.82C229.062 150.82 231.967 151.31 234.277 152.29C236.657 153.27 238.617 154.81 240.157 156.91C244.357 154.74 248.137 153.2 251.497 152.29C254.927 151.31 258.462 150.82 262.102 150.82C266.302 150.82 269.627 151.52 272.077 152.92C274.527 154.25 276.277 156.42 277.327 159.43C278.377 162.37 278.902 166.36 278.902 171.4V196.075L286.042 199.225ZM350.099 199.225V205H337.604L334.874 197.44C332.004 200.38 328.889 202.55 325.529 203.95C322.239 205.35 318.529 206.05 314.399 206.05C307.679 206.05 302.709 204.755 299.489 202.165C296.269 199.575 294.659 195.375 294.659 189.565C294.659 183.405 296.584 178.96 300.434 176.23C304.284 173.43 310.479 172.03 319.019 172.03C322.379 172.03 325.319 172.345 327.839 172.975C330.429 173.535 332.529 174.235 334.139 175.075V170.98C334.139 167.76 333.719 165.275 332.879 163.525C332.109 161.705 330.674 160.41 328.574 159.64C326.544 158.8 323.569 158.38 319.649 158.38C312.579 158.38 305.229 159.22 297.599 160.9V153.34C305.369 151.66 312.789 150.82 319.859 150.82C326.439 150.82 331.374 151.485 334.664 152.815C338.024 154.145 340.229 156.07 341.279 158.59C342.399 161.11 342.959 164.61 342.959 169.09V196.075L350.099 199.225ZM303.899 188.935C303.899 192.365 304.739 194.815 306.419 196.285C308.169 197.755 311.319 198.49 315.869 198.49C319.229 198.49 322.449 197.895 325.529 196.705C328.679 195.445 331.549 193.73 334.139 191.56V181.06C330.219 179.94 325.494 179.38 319.964 179.38C313.874 179.38 309.674 180.15 307.364 181.69C305.054 183.23 303.899 185.645 303.899 188.935ZM415.656 199.225V205H403.161L400.431 197.44C397.491 200.38 394.341 202.55 390.981 203.95C387.691 205.35 383.876 206.05 379.536 206.05C374.776 206.05 370.856 205.245 367.776 203.635C364.766 201.955 362.491 199.155 360.951 195.235C359.411 191.245 358.641 185.785 358.641 178.855C358.641 168.985 360.531 161.845 364.311 157.435C368.091 153.025 373.481 150.82 380.481 150.82C383.701 150.82 386.851 151.275 389.931 152.185C393.011 153.095 396.266 154.565 399.696 156.595V139.375L392.556 136.435V130.45H408.516V196.075L415.656 199.225ZM367.881 179.695C367.881 184.525 368.336 188.305 369.246 191.035C370.226 193.765 371.696 195.69 373.656 196.81C375.616 197.86 378.171 198.385 381.321 198.385C387.831 198.385 393.956 196.11 399.696 191.56V162.79C395.286 161.18 391.926 160.06 389.616 159.43C387.376 158.8 385.031 158.485 382.581 158.485C377.331 158.485 373.551 160.235 371.241 163.735C369.001 167.165 367.881 172.485 367.881 179.695ZM441.908 176.65V195.97L449.678 199.225V205H425.108V199.225L432.878 195.97V142.63L425.108 139.585V133.6H466.898C473.688 133.6 478.833 135.42 482.333 139.06C485.833 142.7 487.583 148.055 487.583 155.125C487.583 162.195 485.728 167.55 482.018 171.19C478.378 174.83 473.023 176.65 465.953 176.65H441.908ZM478.133 155.125C478.133 150.225 477.153 146.69 475.193 144.52C473.303 142.28 470.258 141.16 466.058 141.16H441.908V169.09H465.008C469.698 169.09 473.058 168.005 475.088 165.835C477.118 163.665 478.133 160.095 478.133 155.125ZM511.491 196.075L518.631 199.225V205H495.531V199.225L502.671 196.075V139.375L495.531 136.435V130.45H511.491V196.075ZM582.658 199.225V205H570.163L567.433 197.44C564.563 200.38 561.448 202.55 558.088 203.95C554.798 205.35 551.088 206.05 546.958 206.05C540.238 206.05 535.268 204.755 532.048 202.165C528.828 199.575 527.218 195.375 527.218 189.565C527.218 183.405 529.143 178.96 532.993 176.23C536.843 173.43 543.038 172.03 551.578 172.03C554.938 172.03 557.878 172.345 560.398 172.975C562.988 173.535 565.088 174.235 566.698 175.075V170.98C566.698 167.76 566.278 165.275 565.438 163.525C564.668 161.705 563.233 160.41 561.133 159.64C559.103 158.8 556.128 158.38 552.208 158.38C545.138 158.38 537.788 159.22 530.158 160.9V153.34C537.928 151.66 545.348 150.82 552.418 150.82C558.998 150.82 563.933 151.485 567.223 152.815C570.583 154.145 572.788 156.07 573.838 158.59C574.958 161.11 575.518 164.61 575.518 169.09V196.075L582.658 199.225ZM536.458 188.935C536.458 192.365 537.298 194.815 538.978 196.285C540.728 197.755 543.878 198.49 548.428 198.49C551.788 198.49 555.008 197.895 558.088 196.705C561.238 195.445 564.108 193.73 566.698 191.56V181.06C562.778 179.94 558.053 179.38 552.523 179.38C546.433 179.38 542.233 180.15 539.923 181.69C537.613 183.23 536.458 185.645 536.458 188.935ZM618.71 150.82C624.52 150.82 628.615 151.555 630.995 153.025C633.375 154.495 634.565 156.84 634.565 160.06C634.565 165.73 631.205 168.565 624.485 168.565L619.865 158.065C614.335 158.065 610.17 158.695 607.37 159.955C604.57 161.215 602.61 163.28 601.49 166.15C600.44 168.95 599.915 173.045 599.915 178.435C599.915 183.965 600.51 188.2 601.7 191.14C602.96 194.08 604.85 196.11 607.37 197.23C609.96 198.35 613.46 198.91 617.87 198.91C620.88 198.91 623.61 198.735 626.06 198.385C628.51 197.965 631.065 197.265 633.725 196.285V203.845C631.555 204.685 629 205.315 626.06 205.735C623.19 206.225 620.32 206.47 617.45 206.47C608.77 206.47 602.12 204.405 597.5 200.275C592.95 196.075 590.675 188.9 590.675 178.75C590.675 168.88 592.985 161.775 597.605 157.435C602.295 153.025 609.33 150.82 618.71 150.82ZM669.427 150.82C676.567 150.82 682.342 153.06 686.752 157.54C691.232 161.95 693.472 168.53 693.472 177.28V181.48H652.312C652.662 186.17 653.502 189.775 654.832 192.295C656.232 194.745 658.227 196.46 660.817 197.44C663.477 198.42 667.117 198.91 671.737 198.91C678.387 198.91 684.967 198.105 691.477 196.495V204.055C688.747 204.755 685.562 205.315 681.922 205.735C678.282 206.225 674.817 206.47 671.527 206.47C662.217 206.47 655.147 204.37 650.317 200.17C645.487 195.97 643.072 188.795 643.072 178.645C643.072 169.195 645.452 162.195 650.212 157.645C654.972 153.095 661.377 150.82 669.427 150.82ZM668.902 158.38C663.442 158.38 659.452 159.605 656.932 162.055C654.412 164.505 652.907 168.495 652.417 174.025H684.127C683.707 168.845 682.272 164.96 679.822 162.37C677.372 159.71 673.732 158.38 668.902 158.38Z" />
</svg>
