<svg viewBox="0 0 606 239" fill="none" xmlns="http://www.w3.org/2000/svg"><defs><filter x="-50%" y="-50%" width="200%" height="200%" filterUnits="objectBoundingBox" id="a"><feOffset dx="1" dy="1" in="SourceAlpha" result="shadowOffsetOuter1"/><feColorMatrix values="0 0 0 0 1 0 0 0 0 1 0 0 0 0 1 0 0 0 0.323001585 0" in="shadowOffsetOuter1" result="shadowMatrixOuter1"/><feMerge><feMergeNode in="shadowMatrixOuter1"/><feMergeNode in="SourceGraphic"/></feMerge></filter></defs><g filter="url(#a)" fill="#FFF" fill-rule="evenodd">
<ellipse cx="368" cy="178.5" rx="102" ry="100.5" fill="#C4C4C4" fill-opacity="0.5"/>
<path d="M208.559 149.44V153.259L203.601 155.202V195H196.767L170.972 156.609V189.305L176.265 191.315V195H161.123V191.315L166.081 189.305V155.202L161.123 153.259V149.44H172.915L198.643 187.764V155.202L193.35 153.259V149.44H208.559ZM231.313 160.428C236.45 160.428 240.559 161.857 243.641 164.716C246.768 167.53 248.331 172.019 248.331 178.183C248.331 184.347 246.768 188.858 243.641 191.717C240.559 194.531 236.45 195.938 231.313 195.938C226.177 195.938 222.045 194.531 218.918 191.717C215.836 188.858 214.295 184.347 214.295 178.183C214.295 172.019 215.836 167.53 218.918 164.716C222.045 161.857 226.177 160.428 231.313 160.428ZM231.313 165.252C228.633 165.252 226.489 165.632 224.881 166.391C223.318 167.15 222.134 168.468 221.33 170.344C220.571 172.22 220.191 174.833 220.191 178.183C220.191 181.533 220.571 184.146 221.33 186.022C222.134 187.898 223.318 189.216 224.881 189.975C226.489 190.734 228.633 191.114 231.313 191.114C233.993 191.114 236.115 190.734 237.678 189.975C239.286 189.216 240.47 187.898 241.229 186.022C242.033 184.146 242.435 181.533 242.435 178.183C242.435 174.833 242.033 172.22 241.229 170.344C240.47 168.468 239.286 167.15 237.678 166.391C236.115 165.632 233.993 165.252 231.313 165.252ZM315.522 191.315V195H305.338V172.823C305.338 170.188 304.757 168.289 303.596 167.128C302.435 165.922 300.715 165.319 298.437 165.319C296.874 165.319 295.422 165.52 294.082 165.922C292.787 166.279 290.643 166.994 287.65 168.066V189.305L292.206 191.315V195H282.022V172.823C282.022 170.188 281.441 168.289 280.28 167.128C279.119 165.922 277.399 165.319 275.121 165.319C273.602 165.319 272.173 165.52 270.833 165.922C269.538 166.279 267.371 166.994 264.334 168.066V189.305L268.89 191.315V195H254.15V191.315L258.706 189.305V167.061L254.15 165.185V161.366H261.587L263.329 164.113C265.964 162.773 268.332 161.835 270.431 161.299C272.53 160.718 274.697 160.428 276.93 160.428C279.163 160.428 281.017 160.741 282.491 161.366C284.01 161.991 285.26 162.974 286.243 164.314C288.923 162.929 291.335 161.947 293.479 161.366C295.668 160.741 297.923 160.428 300.246 160.428C302.926 160.428 305.048 160.875 306.611 161.768C308.174 162.617 309.291 164.001 309.961 165.922C310.631 167.798 310.966 170.344 310.966 173.56V189.305L315.522 191.315ZM356.397 191.315V195H348.424L346.682 190.176C344.85 192.052 342.863 193.437 340.719 194.33C338.619 195.223 336.252 195.67 333.617 195.67C329.329 195.67 326.157 194.844 324.103 193.191C322.048 191.538 321.021 188.858 321.021 185.151C321.021 181.22 322.249 178.384 324.706 176.642C327.162 174.855 331.115 173.962 336.565 173.962C338.709 173.962 340.585 174.163 342.193 174.565C343.845 174.922 345.185 175.369 346.213 175.905V173.292C346.213 171.237 345.945 169.652 345.409 168.535C344.917 167.374 344.002 166.547 342.662 166.056C341.366 165.52 339.468 165.252 336.967 165.252C332.455 165.252 327.765 165.788 322.897 166.86V162.036C327.855 160.964 332.589 160.428 337.101 160.428C341.299 160.428 344.448 160.852 346.548 161.701C348.692 162.55 350.099 163.778 350.769 165.386C351.483 166.994 351.841 169.227 351.841 172.086V189.305L356.397 191.315ZM326.917 184.749C326.917 186.938 327.453 188.501 328.525 189.439C329.641 190.377 331.651 190.846 334.555 190.846C336.699 190.846 338.753 190.466 340.719 189.707C342.729 188.903 344.56 187.809 346.213 186.424V179.724C343.711 179.009 340.696 178.652 337.168 178.652C333.282 178.652 330.602 179.143 329.128 180.126C327.654 181.109 326.917 182.65 326.917 184.749ZM398.228 191.315V195H390.255L388.513 190.176C386.637 192.052 384.627 193.437 382.483 194.33C380.384 195.223 377.949 195.67 375.18 195.67C372.143 195.67 369.641 195.156 367.676 194.129C365.755 193.057 364.304 191.27 363.321 188.769C362.338 186.223 361.847 182.739 361.847 178.317C361.847 172.019 363.053 167.463 365.465 164.649C367.877 161.835 371.316 160.428 375.783 160.428C377.838 160.428 379.848 160.718 381.813 161.299C383.778 161.88 385.855 162.818 388.044 164.113V153.125L383.488 151.249V147.43H393.672V189.305L398.228 191.315ZM367.743 178.853C367.743 181.935 368.033 184.347 368.614 186.089C369.239 187.831 370.177 189.059 371.428 189.774C372.679 190.444 374.309 190.779 376.319 190.779C380.473 190.779 384.381 189.327 388.044 186.424V168.066C385.23 167.039 383.086 166.324 381.612 165.922C380.183 165.52 378.686 165.319 377.123 165.319C373.773 165.319 371.361 166.436 369.887 168.669C368.458 170.858 367.743 174.252 367.743 178.853ZM414.98 176.91V189.238L419.938 191.315V195H404.26V191.315L409.218 189.238V155.202L404.26 153.259V149.44H430.926C435.258 149.44 438.541 150.601 440.775 152.924C443.008 155.247 444.125 158.664 444.125 163.175C444.125 167.686 442.941 171.103 440.574 173.426C438.251 175.749 434.834 176.91 430.323 176.91H414.98ZM438.095 163.175C438.095 160.048 437.469 157.793 436.219 156.408C435.013 154.979 433.07 154.264 430.39 154.264H414.98V172.086H429.72C432.712 172.086 434.856 171.394 436.152 170.009C437.447 168.624 438.095 166.346 438.095 163.175ZM459.38 189.305L463.936 191.315V195H449.196V191.315L453.752 189.305V153.125L449.196 151.249V147.43H459.38V189.305ZM504.791 191.315V195H496.818L495.076 190.176C493.245 192.052 491.257 193.437 489.113 194.33C487.014 195.223 484.646 195.67 482.011 195.67C477.723 195.67 474.552 194.844 472.497 193.191C470.442 191.538 469.415 188.858 469.415 185.151C469.415 181.22 470.643 178.384 473.1 176.642C475.557 174.855 479.51 173.962 484.959 173.962C487.103 173.962 488.979 174.163 490.587 174.565C492.24 174.922 493.58 175.369 494.607 175.905V173.292C494.607 171.237 494.339 169.652 493.803 168.535C493.312 167.374 492.396 166.547 491.056 166.056C489.761 165.52 487.862 165.252 485.361 165.252C480.85 165.252 476.16 165.788 471.291 166.86V162.036C476.249 160.964 480.984 160.428 485.495 160.428C489.694 160.428 492.843 160.852 494.942 161.701C497.086 162.55 498.493 163.778 499.163 165.386C499.878 166.994 500.235 169.227 500.235 172.086V189.305L504.791 191.315ZM475.311 184.749C475.311 186.938 475.847 188.501 476.919 189.439C478.036 190.377 480.046 190.846 482.949 190.846C485.093 190.846 487.148 190.466 489.113 189.707C491.123 188.903 492.954 187.809 494.607 186.424V179.724C492.106 179.009 489.091 178.652 485.562 178.652C481.676 178.652 478.996 179.143 477.522 180.126C476.048 181.109 475.311 182.65 475.311 184.749ZM527.796 160.428C531.503 160.428 534.116 160.897 535.635 161.835C537.153 162.773 537.913 164.269 537.913 166.324C537.913 169.942 535.769 171.751 531.481 171.751L528.533 165.051C525.004 165.051 522.346 165.453 520.56 166.257C518.773 167.061 517.522 168.379 516.808 170.21C516.138 171.997 515.803 174.61 515.803 178.049C515.803 181.578 516.182 184.28 516.942 186.156C517.746 188.032 518.952 189.327 520.56 190.042C522.212 190.757 524.446 191.114 527.26 191.114C529.18 191.114 530.922 191.002 532.486 190.779C534.049 190.511 535.679 190.064 537.377 189.439V194.263C535.992 194.799 534.362 195.201 532.486 195.469C530.654 195.782 528.823 195.938 526.992 195.938C521.453 195.938 517.21 194.62 514.262 191.985C511.358 189.305 509.907 184.727 509.907 178.25C509.907 171.952 511.381 167.418 514.329 164.649C517.321 161.835 521.81 160.428 527.796 160.428ZM560.158 160.428C564.714 160.428 568.399 161.857 571.213 164.716C574.072 167.53 575.501 171.729 575.501 177.312V179.992H549.237C549.461 182.985 549.997 185.285 550.845 186.893C551.739 188.456 553.012 189.551 554.664 190.176C556.362 190.801 558.684 191.114 561.632 191.114C565.876 191.114 570.074 190.6 574.228 189.573V194.397C572.486 194.844 570.454 195.201 568.131 195.469C565.809 195.782 563.598 195.938 561.498 195.938C555.558 195.938 551.046 194.598 547.964 191.918C544.882 189.238 543.341 184.66 543.341 178.183C543.341 172.153 544.86 167.686 547.897 164.783C550.935 161.88 555.022 160.428 560.158 160.428ZM559.823 165.252C556.339 165.252 553.793 166.034 552.185 167.597C550.577 169.16 549.617 171.706 549.304 175.235H569.538C569.27 171.93 568.355 169.451 566.791 167.798C565.228 166.101 562.905 165.252 559.823 165.252Z" fill="black"/>
</g>
</svg>
