<?xml version="1.0"?>
<svg xmlns="http://www.w3.org/2000/svg" viewBox="0 0 64 64"><g id="Outline"><g><path d="M61,26H50.372a1,1,0,0,0,0,2H55V60H51V54a1,1,0,0,0-1-1H4V47H28.905c1.311,1.555,2.218,2.527,2.367,2.686a1,1,0,0,0,1.456,0C33.393,48.979,49,32.244,49,19A16.945,16.945,0,0,0,44.453,7.427,1,1,0,0,0,42.988,8.79,14.946,14.946,0,0,1,47,19c0,10.886-11.9,25.018-15,28.51C28.9,44.018,17,29.886,17,19A15,15,0,0,1,40.1,6.373,1,1,0,0,0,41.181,4.69,17,17,0,0,0,15,19c0,9.145,7.44,19.952,12.265,26H4V35H14v7a1,1,0,0,0,2,0V34a1,1,0,0,0-1-1H4V28h9.628a1,1,0,0,0,0-2H3a1,1,0,0,0-1,1V61a1,1,0,0,0,1,1H16a1,1,0,0,0,0-2H4V55H28v5H20a1,1,0,0,0,0,2H61a1,1,0,0,0,1-1V27A1,1,0,0,0,61,26ZM49,60H37V55H49ZM30,60V55h5v5Zm30,0H57V28h3Z"/><path d="M49,39H44a1,1,0,0,0-1,1v5H39.616a1,1,0,0,0,0,2H50a1,1,0,0,0,1-1V31a1,1,0,0,0-2,0Zm0,6H45V41h4Z"/><path d="M32,22a4.961,4.961,0,0,1-1.946-.393,1,1,0,0,0-.779,1.842,6.993,6.993,0,1,0-3.593-3.431,1,1,0,1,0,1.8-.863A4.953,4.953,0,0,1,27,17a5,5,0,1,1,5,5Z"/></g></g></svg>
